<svg viewBox="0 0 374 374" xmlns="http://www.w3.org/2000/svg">
  <g transform="translate(20,61.85)">
    <path
      fill="#000000"
      d="M55.5 10.9c-19.3 20-25.6 29-34.2 49L11 82.7a43 43 0 0 0-5.8 21 378 378 0 0 1-2.3 21.5 225 225 0 0 0-2.5 43.4c1.4 5 4.4 8.3 12.3 13.4 3.9 2.4 10.3 7 14.1 10.2 8.7 7.2 12.2 8.9 18.1 9.3 8.9.4 7.5-7.7-1.5-8.5-3-.2-3.7-.7-3.9-2.8a9.4 9.4 0 0 0-9.5-7.8q-7.4.5-5.1-6c.8-2.2 1.4-2.7 4-2.4q3 .3 4.8-1.7c1.1-1.3 3.7-2.3 6.5-2.7 6.6-1 6.4-1 8.1 2.2 3.1 5.4 8 5.4 8 0 0-1.2.4-2.6.9-3.2.5-.5 1.1-2.3 1.3-4 .7-7 12.9-6.7 14.3.4 1.4 6.2 5.8 8 8.1 3.3 1.8-3.5 4.3-4.7 5-2.4 1.2 3.8 2.2 4.8 6.5 5.8s4.4 1.2 4.7 5.5c.2 3.2 1.2 5.3 3.4 7.8 3.7 4.3 3.4 7.4-1.2 16.3-3.2 6.2-3.8 11-1.8 16.5 1 2.7.9 4.2-.7 8.8-2.5 7.2-1.1 9.4 7.7 12.6 3.5 1.3 7.2 3 8.4 4.2a8 8 0 0 0 4.6 1.8c1.4 0 3.3.9 4.3 2 1.6 1.7 2.6 1.8 11.5 1.3 6.1-.4 12.2-.1 15.9.6 8.1 1.6 35.3 1.6 38.3 0 1.3-.7 5.1-3.6 8.4-6.6 5.3-4.6 6.3-5.1 7.4-3.8q2.8 3.3 7-1c1.3-1.4 3.4-2.5 4.6-2.5s6.8-1 12.4-2c22-4.3 40.4-2.5 58.8 6a69 69 0 0 0 23.5 7c6.7 1 14.1 2.5 16.5 3.2 6.5 1.9 7.7.7 7.9-8 .1-6.7-.1-7.4-3.3-11.4-2.7-3.5-3.4-5.2-3.4-9q0-4.5-1.6-6c-2.2-1.7-3.2-4.7-4.5-13.1-1.5-10.2-2.4-12-8.9-17.1-4.1-3.3-5.9-5.4-6.4-7.7-.3-1.8-2-5.5-3.7-8.3a43 43 0 0 1-4.9-19.8c0-1-1.2-3.2-2.8-5a37 37 0 0 1-4.4-7c-.9-2-4-5.5-6.8-8-10.7-9-11.8-10.4-14.6-19.6-10-33-9.1-31-13.9-34.8l-4.5-3.6.7-7.4c.9-11.1-4.4-14.8-13.4-9.3-5.3 3.3-9.9 2.7-22-2.8-10.5-4.8-10.8-5-12.3-9.4-2-6-20.7-16-29.6-16-3 0-7-.7-9.5-2a25 25 0 0 0-8.5-2c-6.2 0-19.5-2.6-26.7-5.4-3.5-1.3-10.1-3.1-14.6-4a81 81 0 0 1-9.2-2c-.4-.3-4.8-1-9.6-1.6C82 7.6 80.7 7 76.5 3.6c-6.9-6-8.9-5.2-21 7.3m144.4 206.4c.3.6 2.2.9 4.3.7 2.2-.3 4.5 0 5.9 1a17 17 0 0 0 5.5 2c1.7.5 3.2 1.4 3.2 2.2 0 2-4.8 2.9-9.4 1.7q-7.5-2.2-7.9 3.9c-.5 5.2-1 5.9-3 4-2.7-2.3-4.8-2-7.4 1.3l-2.3 2.9-4.9-4.2-4.8-4.3 1.7-3.4c3.1-6.2 5.2-7.7 9.5-7.2 2.1.3 4.6 0 5.6-.6 2.4-1.3 3.1-1.4 4 0"
    />
    <circle cx="156" cy="133" r="35" fill="none" stroke="#e8c547" stroke-width="6" />
    <circle cx="156" cy="133" r="15" fill="#e8c547" />
  </g>
</svg>
